# xmcd CD database file
#
# Track frame offsets:
#	150
#	13834
#	25799
#	38403
#	50268
#	62153
#	74322
#	90629
#	103927
#	118116
#	131645
#	141943
#	153573
#	165574
#	174409
#	188657
#	201526
#	217472
#	226626
#	243133
#
# Disc length: 3354 seconds
#
# Revision: 0
# Processed by: cddbd v1.5.2PL0 Copyright (c) Steve Scherf et al.
# Submitted via: CDex 1.51
#
DISCID=1a0d1814
DTITLE=Frank Sinatra - Frank in the 50's
DYEAR=2005
DGENRE=Jazz
TTITLE0=From here to eternity
TTITLE1=American beauty rose
TTITLE2=April in Paris
TTITLE3=Azure-Te
TTITLE4=Castle rock
TTITLE5=Chattanoogie shoe shine boy
TTITLE6=Hello young lovers
TTITLE7=I get a kick out of you
TTITLE8=I hear a rhapsody
TTITLE9=I'm walking behind you
TTITLE10=I've got the world on a string
TTITLE11=My funny valentine
TTITLE12=The girl next door
TTITLE13=I've got a crush on you
TTITLE14=Nevertheless (I'm in love with you)
TTITLE15=South of the border
TTITLE16=The birth of blues
TTITLE17=They can't take that away from me
TTITLE18=We kiss a shadow
TTITLE19=When you're smiling (The whole world smiles with you)
EXTD=YEAR: 2005
EXTT0=
EXTT1=
EXTT2=
EXTT3=
EXTT4=
EXTT5=
EXTT6=
EXTT7=
EXTT8=
EXTT9=
EXTT10=
EXTT11=
EXTT12=
EXTT13=
EXTT14=
EXTT15=
EXTT16=
EXTT17=
EXTT18=
EXTT19=
PLAYORDER=
